<svg width="435" height="251" viewBox="0 0 435 251" fill="none" xmlns="http://www.w3.org/2000/svg">
<path d="M398.103 242.756L365.039 163.818C365.039 163.818 373.345 108.322 327.983 84.1346L327.383 75.6675C327.383 75.6675 356.338 46.0695 338.103 28.9453C319.867 11.8212 298.897 35.5113 298.897 35.5113C298.897 35.5113 297.493 3.66123 266.096 1.9064C238.911 0.385549 224.024 22.0721 218.643 37.1636C215.148 46.9906 220.105 57.7977 225.296 53.4984C230.312 47.1956 215.908 41.6532 213.51 40.9951C194.967 35.8769 181.908 52.3867 189.673 67.8877C195.567 79.6597 209.649 85.6115 218.555 84.7926L231.351 122.287C231.351 122.287 214.987 104.476 195.801 104.213C176.6 103.95 161.918 117.228 163.073 137.452C164.228 157.676 173.383 154.708 175.181 141.444C176.98 128.181 178.15 126.119 178.15 126.119C178.15 126.119 181.718 141.283 190.522 142.731C197.658 143.901 201.065 134.074 201.08 132.041C202.25 136.136 208.757 141.971 213.802 133.211C214.914 148.2 216.391 166.216 216.391 166.216H238.501L269.255 242.522" fill="#E0E0FF"/>
<path d="M396.421 243.458L363.357 164.52C363.225 164.213 363.182 163.877 363.24 163.54C363.328 162.999 370.8 109.023 327.134 85.7426C326.579 85.4501 326.213 84.8798 326.169 84.2656L325.57 75.7989C325.526 75.2724 325.716 74.7603 326.082 74.3947C326.242 74.2192 342.621 57.2853 342.299 42.3839C342.197 37.6459 340.369 33.5805 336.844 30.2755C332.56 26.2541 327.749 24.3385 322.572 24.5725C310.698 25.1136 300.373 36.5928 300.271 36.7098C299.774 37.2655 298.999 37.4703 298.297 37.2217C297.595 36.9731 297.112 36.3299 297.083 35.5841C297.025 34.3557 295.343 5.35713 266.008 3.71929C234.772 1.97908 222.518 31.7819 220.383 37.763C219.944 39.006 219.651 40.234 219.476 41.4478C222.898 43.1441 226.846 45.7327 227.914 49.0084C228.352 50.3538 228.499 52.4301 226.744 54.6383C226.671 54.7406 226.568 54.8286 226.481 54.9164C224.448 56.5835 222.035 56.744 220.031 55.3402C217.399 53.4976 215.557 48.9643 215.644 43.6999C214.606 43.2612 213.7 42.9396 213.056 42.7641C205.042 40.556 197.54 42.5593 192.978 48.1162C188.708 53.3076 188.094 60.5754 191.355 67.0683C197.116 78.5478 210.775 83.6808 218.438 82.9789C219.286 82.8912 220.061 83.4031 220.339 84.2074L233.134 121.702C233.412 122.521 233.076 123.428 232.345 123.866C231.613 124.305 230.648 124.173 230.063 123.53C229.902 123.355 213.992 106.289 195.83 106.04C186.485 105.909 178.237 109.111 172.549 115.048C167.08 120.766 164.447 128.473 164.959 137.335C165.559 147.703 168.176 150.13 169.039 150.174C169.039 150.174 169.054 150.174 169.068 150.174C170.151 150.174 172.578 147.498 173.426 141.195C174.786 131.164 175.971 126.352 176.614 125.212C176.98 124.553 177.711 124.188 178.457 124.305C179.203 124.407 179.802 124.963 179.978 125.694C180.899 129.584 184.643 139.908 190.858 140.932C192.422 141.195 193.826 140.771 195.171 139.645C197.95 137.32 199.295 132.86 199.295 132.026C199.295 131.12 199.983 130.359 200.875 130.228C201.781 130.111 202.629 130.666 202.878 131.529C203.419 133.401 205.423 135.667 207.441 135.916C209.546 136.165 211.228 134.088 212.266 132.289C212.661 131.588 213.466 131.236 214.255 131.412C215.045 131.587 215.615 132.26 215.674 133.065C216.58 145.231 217.736 159.562 218.13 164.373H238.56C239.305 164.373 239.978 164.827 240.256 165.514L271.009 241.82L267.617 243.18L237.331 168.015H216.449C215.498 168.015 214.709 167.284 214.621 166.333C214.621 166.172 213.407 151.578 212.369 137.861C210.409 139.455 208.494 139.689 207.002 139.513C204.969 139.265 203.097 138.08 201.694 136.545C200.772 138.607 199.368 140.844 197.511 142.409C195.362 144.208 192.861 144.939 190.258 144.515C184.277 143.535 180.533 137.408 178.457 132.567C178.062 134.732 177.579 137.671 177.038 141.663C176.029 149.077 172.797 153.947 168.878 153.815C166.392 153.713 162.078 151.476 161.289 137.539C160.718 127.639 163.702 118.982 169.887 112.518C176.278 105.835 185.52 102.238 195.859 102.37C209.064 102.545 220.777 110.486 227.299 115.955L217.297 86.6787C207.411 86.9127 193.914 80.3466 188.064 68.6917C184.145 60.8827 184.95 52.1087 190.141 45.7767C195.654 39.0644 204.574 36.6223 214.021 39.2253C214.05 39.2253 214.84 39.4739 216.01 39.9419C216.215 38.8159 216.522 37.6897 216.931 36.5491C223.556 17.9626 239.978 -1.38432 266.198 0.0780368C292.14 1.52577 298.648 22.7443 300.227 31.5915C304.351 27.804 312.73 21.3699 322.382 20.9166C328.597 20.6241 334.315 22.8759 339.345 27.5993C343.601 31.5915 345.823 36.5344 345.94 42.2961C346.262 57.2413 332.326 73.0202 329.255 76.3251L329.737 82.9935C372.35 106.464 367.598 157.778 366.911 163.554L399.784 242.039L396.406 243.458H396.421ZM219.359 45.5278C219.637 48.8327 220.807 51.4213 222.123 52.3573C222.576 52.679 223.132 52.8836 223.995 52.2255C224.667 51.3042 224.579 50.6463 224.419 50.1637C223.892 48.5405 221.713 46.8878 219.344 45.5278H219.359Z" fill="black"/>
<path d="M233.322 121.593L229.855 122.753L240.481 154.51L243.948 153.35L233.322 121.593Z" fill="black"/>
<path d="M310.844 166.216C310.844 166.216 327.368 193.328 345.736 189.76C362.421 186.514 365.039 163.818 365.039 163.818" fill="#E0E0FF"/>
<path d="M342.328 191.925C324.59 191.925 309.937 168.264 309.279 167.182L312.394 165.281C312.555 165.544 328.48 191.267 345.37 187.976C360.564 185.022 363.196 163.833 363.211 163.628L366.837 164.052C366.72 165.032 363.854 188.108 346.057 191.574C344.785 191.822 343.542 191.939 342.299 191.939L342.328 191.925Z" fill="black"/>
<path d="M329.591 121.146C329.167 121.015 319.267 117.871 312.833 110.164C309.031 105.602 309.279 102.341 310.171 100.425C310.946 98.7286 312.511 97.4273 314.69 96.5938C312.38 95.1022 310.201 93.0547 308.987 90.5248C307.656 87.7756 307.715 84.8508 309.148 82.0723C310.113 80.2151 311.678 78.9429 313.681 78.4164C319.677 76.8078 328.056 82.014 328.992 82.6136L327.018 85.6989C324.853 84.3097 318.39 80.9466 314.617 81.9556C313.593 82.2334 312.891 82.8037 312.394 83.7542C311.487 85.5237 311.444 87.2201 312.277 88.9457C313.93 92.3676 318.668 95.0434 321.314 95.5698C322.236 95.7599 322.865 96.5936 322.777 97.5295C322.689 98.4654 321.914 99.1822 320.978 99.1968C317.118 99.2553 314.251 100.308 313.491 101.961C312.862 103.335 313.622 105.412 315.641 107.839C321.358 114.698 330.586 117.652 330.674 117.681L329.591 121.176V121.146Z" fill="black"/>
<path d="M313.462 109.828H304.717C300.578 109.828 297.215 106.582 297.069 102.443L295.577 61.4386C295.504 59.3913 296.235 57.4318 297.639 55.9402C299.043 54.4486 300.929 53.5855 302.991 53.5124L320.452 52.9423C324.561 52.796 328.114 56.0424 328.348 60.1662L329.211 75.5795L325.555 75.7844L324.692 60.3711C324.575 58.2215 322.748 56.525 320.569 56.5981L303.108 57.1683C302.041 57.1976 301.046 57.6511 300.315 58.4407C299.584 59.2304 299.204 60.2394 299.248 61.3215L300.739 102.326C300.812 104.49 302.567 106.186 304.731 106.186H313.476V109.842L313.462 109.828Z" fill="black"/>
<path d="M254.046 71.5435L252.101 102.122L267.967 97.7488" fill="#E0E0FF"/>
<path d="M252.101 103.949C251.692 103.949 251.282 103.803 250.946 103.54C250.492 103.16 250.244 102.589 250.273 102.004L252.203 71.4263L255.859 71.6605L254.09 99.6791L267.485 95.9939L268.45 99.5184L252.584 103.891C252.423 103.935 252.262 103.949 252.101 103.949Z" fill="black"/>
<path d="M248.431 115.809C248.431 115.809 279.856 133.064 282.269 93.4785Z" fill="#E0E0FF"/>
<path d="M262.747 121.395C254.909 121.395 247.948 117.637 247.538 117.417L249.293 114.215C249.41 114.288 261.592 120.81 270.497 115.896C276.376 112.65 279.71 105.075 280.427 93.376L284.083 93.5955C283.293 106.625 279.315 115.209 272.252 119.099C269.181 120.795 265.891 121.395 262.747 121.395Z" fill="black"/>
<path d="M162.868 106.567L159.548 105.046C159.739 104.622 178.544 62.6088 149.897 45.0459C138.315 37.9535 120.021 34.7653 106.553 49.1549C105.149 50.6611 103.906 52.2551 102.868 53.9075C112.592 55.1652 122.171 58.6751 126.499 66.5864C131.325 75.419 127.596 84.8219 121.176 88.8288C115.678 92.2653 106.626 92.543 99.197 82.0432C94.1519 74.9216 93.5816 65.6651 97.0913 57.0957C89.0045 56.6716 81.3855 57.578 77.7589 58.6309L76.7352 55.1214C80.4057 54.0539 89.3553 52.84 98.8314 53.5127C100.177 51.1144 101.858 48.804 103.877 46.6689C113.236 36.6664 131.398 29.4278 151.798 41.9456C183.209 61.2048 163.073 106.128 162.868 106.582V106.567ZM100.952 57.4028C97.3983 65.1386 97.6762 73.5617 102.18 79.9229C108.132 88.3314 114.903 88.4338 119.246 85.7138C124.218 82.6136 127.084 75.2581 123.297 68.3265C119.538 61.4535 110.311 58.4118 100.966 57.4028H100.952Z" fill="black"/>
<path d="M18.826 107.619C18.2703 107.619 17.7293 107.371 17.3783 106.903C16.8372 106.201 16.8811 105.221 17.4807 104.563L53.44 65.0943C53.864 64.6264 54.4929 64.4215 55.1071 64.5238L86.109 69.9638C86.8841 70.0954 87.4836 70.7096 87.6006 71.4993C87.7176 72.289 87.3227 73.0495 86.6208 73.4004L19.6596 107.444C19.3964 107.576 19.1185 107.649 18.826 107.649V107.619ZM55.4434 68.2968L26.8983 99.635L80.0549 72.6107L55.4434 68.2968Z" fill="black"/>
<path d="M67.3822 67.3978L46.719 81.2725L48.757 84.3076L69.4202 70.433L67.3822 67.3978Z" fill="black"/>
<path d="M19.3087 107.561L18.3142 104.037L74.6588 88.112V76.4717H78.3147V89.4865C78.3147 90.3054 77.7737 91.0219 76.984 91.2413L19.3087 107.547V107.561Z" fill="black"/>
<path d="M165.53 246.353H60.4302V242.697H162.956L136.516 166.816C136.326 166.26 136.414 165.631 136.751 165.149C137.087 164.666 137.643 164.374 138.242 164.374H238.545C239.291 164.374 239.964 164.827 240.241 165.514L270.527 240.68L424.571 240.899V244.555L269.284 244.335C268.538 244.335 267.865 243.882 267.587 243.195L237.302 168.029H140.801L167.241 243.911C167.431 244.467 167.343 245.096 167.007 245.578C166.67 246.061 166.115 246.353 165.515 246.353H165.53Z" fill="black"/>
<path d="M194.192 219.343C194.031 219.139 190.273 214.137 188.708 209.341C186.763 203.36 188.401 200.479 189.542 199.28C190.785 197.993 192.583 197.51 194.338 198.022C196.78 198.724 198.637 201.02 199.31 204.193C199.354 204.369 199.383 204.544 199.412 204.705C199.924 203.872 200.538 203.111 201.284 202.541C202.527 201.576 204.004 201.21 205.569 201.474C207.017 201.722 208.216 202.512 209.02 203.769C211.594 207.747 209.664 215.658 209.43 216.55L205.891 215.644C206.607 212.88 207.251 207.762 205.949 205.758C205.686 205.349 205.394 205.144 204.94 205.071C204.384 204.983 203.946 205.071 203.507 205.422C201.811 206.723 200.86 210.789 200.655 213.041C200.568 213.977 199.793 214.693 198.857 214.708C197.965 214.766 197.131 214.02 197.014 213.099C197.014 213.055 196.458 208.405 195.713 204.939C195.259 202.789 194.133 201.751 193.314 201.517C192.846 201.386 192.466 201.473 192.159 201.795C191.413 202.57 191.018 204.661 192.159 208.186C193.534 212.397 197.043 217.077 197.073 217.121L194.163 219.329L194.192 219.343Z" fill="black"/>
<path d="M201.562 198.841C201.445 198.841 201.343 198.841 201.226 198.812C200.626 198.695 200.114 198.3 199.88 197.73L196.824 190.521L200.188 189.088L202.162 193.752L207.192 188.532L209.824 191.076L202.864 198.286C202.513 198.651 202.045 198.841 201.548 198.841H201.562Z" fill="black"/>
<path d="M239.057 83.8417C240.858 83.8417 242.318 82.3814 242.318 80.5804C242.318 78.7793 240.858 77.3193 239.057 77.3193C237.256 77.3193 235.796 78.7793 235.796 80.5804C235.796 82.3814 237.256 83.8417 239.057 83.8417Z" fill="black"/>
<path d="M273.963 82.1597C275.764 82.1597 277.224 80.6997 277.224 78.8987C277.224 77.0977 275.764 75.6377 273.963 75.6377C272.162 75.6377 270.702 77.0977 270.702 78.8987C270.702 80.6997 272.162 82.1597 273.963 82.1597Z" fill="black"/>
<path d="M219.33 45.5132C219.33 45.5132 219.3 50.5731 221.611 52.2255C223.921 53.878 225.355 51.2313 224.199 49.4765C222.971 47.6047 220.763 46.3175 219.33 45.5132Z" fill="#6A66FF"/>
</svg>
