<svg width="298" height="304" viewBox="0 0 298 304" fill="none" xmlns="http://www.w3.org/2000/svg">
<path d="M239.306 303.664H8.99988V300.008H234.437C231.936 297.507 229.026 293.836 228.47 289.903C228.105 287.343 228.733 285.018 230.342 282.956C232.053 280.763 234.29 279.579 236.82 279.52C240.9 279.447 244.98 282.211 247.729 284.58C248.197 278.175 251.078 270.176 259.896 268.889C265.731 268.041 270.762 269.649 274.066 273.407C276.83 276.552 278.117 280.939 277.693 285.369C280.852 284.814 283.835 285.443 286.014 287.241C288.427 289.216 290.927 293.427 289.202 302.216L285.619 301.514C286.701 296.045 286.014 291.979 283.703 290.078C281.89 288.587 279.039 288.426 276.055 289.654C275.412 289.917 274.666 289.8 274.14 289.332C273.613 288.864 273.408 288.148 273.598 287.475C274.783 283.249 273.92 278.789 271.332 275.85C268.831 273.013 265.073 271.872 260.437 272.545C249.981 274.065 251.371 288.206 251.444 288.82C251.532 289.61 251.093 290.371 250.347 290.692C249.616 291.014 248.753 290.81 248.241 290.21C246.53 288.221 241.163 283.088 236.923 283.22C235.475 283.264 234.276 283.922 233.237 285.252C232.258 286.51 231.878 287.885 232.097 289.435C232.74 293.968 238.297 298.896 240.388 300.417C241.032 300.885 241.295 301.704 241.047 302.464C240.798 303.225 240.096 303.722 239.306 303.722V303.664Z" fill="black"/>
<path d="M126.602 147.63L63.2824 283.293L39.9139 301.485H86.2706L94.1966 290.239L98.1595 301.485H108.06L142.601 205.393L126.675 301.485H143.712L151.243 287.651L159.169 301.485H211.463L189.279 278.994L206.535 144.545L196.649 221.625C196.649 221.625 230.883 165.998 231.79 141.064C232.696 116.131 203.142 108.658 203.142 108.658C203.142 108.658 201.928 87.3958 201.928 77.2324V55.4874C201.928 55.4874 209.971 54.9315 211.477 46.5083C212.984 38.0852 203.318 34.0344 203.318 34.0344L198.945 15.8281H142.63L133.461 65.7821C133.461 65.7821 123.473 64.1736 122.537 72.5237C121.601 80.8737 132.349 83.7984 132.349 83.7984L121.674 113.367C121.674 113.367 94.5329 118.661 88.7273 160.441C82.9218 202.22 94.0357 217.501 94.0357 217.501L126.646 147.645L126.602 147.63Z" fill="#E0E0FF"/>
<path d="M211.448 303.298H159.154C158.496 303.298 157.897 302.947 157.575 302.376L151.272 291.38L145.306 302.333C144.984 302.917 144.37 303.283 143.697 303.283H126.661C126.12 303.283 125.608 303.049 125.272 302.64C124.921 302.23 124.774 301.689 124.862 301.163L137.482 224.959L109.756 302.084C109.493 302.815 108.806 303.298 108.03 303.298H98.1304C97.3553 303.298 96.668 302.815 96.4047 302.084L93.6263 294.173L87.7476 302.523C87.4113 303.005 86.8409 303.298 86.256 303.298H39.8993C39.1243 303.298 38.4224 302.801 38.1738 302.069C37.9252 301.338 38.1738 300.519 38.7733 300.037L61.8054 282.123L91.9153 217.633C89.5902 213.67 81.752 197.058 86.8702 160.192C92.2078 121.746 115.006 113.28 120.241 111.817L129.951 84.9242C125.652 83.1987 119.905 79.1043 120.68 72.3189C120.987 69.5989 122.128 67.4784 124.073 66.0015C126.617 64.0711 129.937 63.7933 131.925 63.8372L140.802 15.4916C140.963 14.6288 141.723 14 142.601 14H198.916C199.764 14 200.495 14.5849 200.7 15.4038L204.868 32.7475C208.757 34.6924 214.548 39.5912 213.262 46.8298C212.092 53.4104 207.207 56.2035 203.742 57.037V77.2469C203.742 85.8017 204.619 102.516 204.882 107.269C207.383 108.044 213.115 110.092 218.819 114.011C228.88 120.898 233.998 130.286 233.603 141.137C232.726 165.515 201.533 217.136 198.404 222.254L191.209 278.35L212.764 300.212C213.276 300.739 213.437 301.528 213.145 302.201C212.867 302.874 212.194 303.327 211.463 303.327L211.448 303.298ZM160.207 299.642H207.076L187.963 280.266C187.568 279.871 187.378 279.301 187.451 278.745L204.707 144.296C204.838 143.302 205.745 142.585 206.754 142.717C207.749 142.848 208.465 143.755 208.333 144.764L199.574 213.056C208.845 197.029 229.274 159.738 229.947 140.991C230.298 131.354 225.882 123.311 216.844 117.081C209.913 112.314 202.747 110.457 202.674 110.428C201.899 110.238 201.343 109.55 201.3 108.761C201.3 108.541 200.086 87.3225 200.086 77.2322V55.4726C200.086 54.5074 200.832 53.7177 201.782 53.6446C202.045 53.63 208.436 53.0303 209.65 46.1718C210.863 39.3134 202.908 35.8477 202.572 35.7015C202.045 35.4675 201.636 35.014 201.504 34.4437L197.468 17.6413H144.107L135.216 66.1039C135.04 67.0837 134.119 67.7418 133.124 67.5809C133.081 67.5809 128.84 66.9373 126.266 68.9115C125.14 69.7743 124.497 71.0171 124.307 72.7281C123.561 79.411 132.408 81.9264 132.788 82.0288C133.285 82.1604 133.695 82.4966 133.929 82.9499C134.163 83.4033 134.207 83.9297 134.031 84.4123L123.356 113.981C123.137 114.581 122.625 115.034 121.981 115.151C120.928 115.356 96.0392 120.811 90.4969 160.689C86.256 191.223 91.1549 207.28 93.8895 213.422L124.95 146.87C125.374 145.963 126.471 145.554 127.377 145.992C128.299 146.416 128.694 147.513 128.255 148.42L95.6443 218.291C95.6443 218.291 95.6443 218.291 95.6443 218.32L64.9495 284.097C64.8325 284.36 64.6424 284.594 64.4084 284.77L45.2369 299.686H85.3201L92.6904 289.215C93.0852 288.66 93.7579 288.367 94.4306 288.455C95.1033 288.543 95.6736 289.011 95.9075 289.654L99.4318 299.686H106.758L140.86 204.808C141.182 203.916 142.133 203.419 143.039 203.653C143.961 203.887 144.531 204.794 144.385 205.715L128.811 299.671H142.601L149.605 286.788C149.927 286.203 150.527 285.837 151.185 285.837C151.799 285.794 152.457 286.188 152.793 286.759L160.193 299.671L160.207 299.642Z" fill="black"/>
<path d="M138.594 73.4445C138.477 73.4445 138.36 73.4448 138.243 73.4155C137.395 73.2547 136.766 72.5086 136.766 71.6458C136.722 68.3994 133.885 67.6246 133.563 67.5515L134.368 63.9831C135.552 64.2463 137.351 65.0653 138.667 66.6593L146.841 46.9175C147.119 46.2448 147.763 45.8061 148.494 45.7914C149.254 45.7768 149.883 46.2009 150.19 46.8589C150.205 46.9028 152.588 51.9479 156.464 52.6791C157.283 52.8399 158.145 52.7817 159.037 52.5184C158.833 52.0797 158.672 51.6555 158.555 51.2606C157.092 46.3764 159.549 40.3661 162.635 38.4358C164.989 36.9734 168.031 37.5 169.713 39.6789C171.672 42.1942 171.745 46.8296 166.057 52.2696C165.574 52.7375 165.092 53.1618 164.609 53.542C166.993 55.1067 170.488 55.4431 173.486 55.37C178.121 55.2676 181.733 54.5948 184.248 53.3956C182.815 52.0649 181.689 50.3248 181.134 48.0582C179.715 42.355 181.602 39.6496 182.859 38.5382C184.38 37.1929 186.5 36.8127 188.416 37.5439C190.493 38.3482 191.897 40.2493 192.174 42.6475C192.496 45.4406 192.935 49.4036 190.551 52.8401C195.655 54.5803 202.089 53.6884 202.192 53.6737L202.718 57.2857C202.206 57.3588 193.929 58.4993 187.685 55.6331C184.556 57.7681 179.905 58.8796 173.573 59.0258C167.241 59.1575 163.498 57.5487 161.304 55.5745C159.447 56.3788 157.59 56.6128 155.776 56.2618C152.676 55.6622 150.366 53.498 148.874 51.5677L140.29 72.3041C139.998 72.9914 139.325 73.4302 138.608 73.4302L138.594 73.4445ZM186.442 40.8196C186.018 40.8196 185.623 40.9659 185.287 41.2584C184.219 42.1943 184 44.4021 184.687 47.166C185.111 48.8623 186.047 50.1495 187.276 51.1146C189.177 48.731 188.84 45.6451 188.548 43.1591C188.416 42.0185 187.89 41.2581 187.1 40.951C186.881 40.8632 186.661 40.8196 186.442 40.8196ZM165.516 41.2584C165.194 41.2584 164.872 41.346 164.58 41.5361C163.074 42.472 161.012 46.6835 162.065 50.2078C162.123 50.3979 162.182 50.5736 162.255 50.749C162.679 50.4127 163.103 50.0471 163.542 49.623C167.227 46.0987 167.841 43.2032 166.832 41.9163C166.495 41.4923 166.013 41.2584 165.516 41.2584Z" fill="black"/>
<path d="M220.427 31.6069H124.014V35.2628H220.427V31.6069Z" fill="black"/>
<path d="M180.944 91.9438C180.856 91.9438 180.768 91.9438 180.68 91.9291L161.758 89.2383L162.269 85.6117L178.502 87.9223L172.374 63.2376L175.928 62.3604L182.713 89.6771C182.859 90.262 182.713 90.891 182.289 91.3443C181.938 91.7246 181.441 91.9438 180.929 91.9438H180.944Z" fill="black"/>
<path d="M156.04 70.4912C157.841 70.4912 159.301 69.0308 159.301 67.2298C159.301 65.4287 157.841 63.9688 156.04 63.9688C154.239 63.9688 152.779 65.4287 152.779 67.2298C152.779 69.0308 154.239 70.4912 156.04 70.4912Z" fill="black"/>
<path d="M188.402 70.4912C190.203 70.4912 191.663 69.0308 191.663 67.2298C191.663 65.4287 190.203 63.9688 188.402 63.9688C186.601 63.9688 185.141 65.4287 185.141 67.2298C185.141 69.0308 186.601 70.4912 188.402 70.4912Z" fill="black"/>
<path d="M162.284 50.7781C162.284 50.7781 161.026 48.5117 162.503 44.3732C164.375 39.138 169.289 40.4542 166.481 45.9966C165.033 48.8628 162.284 50.7781 162.284 50.7781Z" fill="#6A66FF"/>
<path d="M187.246 51.1147C187.246 51.1147 184.76 49.7839 184.351 45.5723C183.942 41.3461 185.433 40.9366 186.281 40.805C187.129 40.6734 188.606 40.9659 188.782 44.5487C188.957 48.1169 188.606 49.4769 187.246 51.1293V51.1147Z" fill="#6A66FF"/>
<path d="M183.356 112.168C169.756 112.168 159.447 108.658 152.705 101.727C144.619 93.4057 144.794 83.301 144.809 82.8623L148.465 82.9644C148.465 83.0522 148.348 92.0458 155.382 99.226C161.406 105.382 170.824 108.512 183.371 108.512V112.168H183.356Z" fill="black"/>
<path d="M204.283 161.961H296.163L288.69 249.059H193.096L204.283 161.961Z" fill="#E0E0FF"/>
<path d="M288.69 250.887H193.096C192.569 250.887 192.072 250.668 191.721 250.273C191.37 249.878 191.209 249.352 191.283 248.84L202.455 161.757C202.572 160.85 203.347 160.163 204.268 160.163H296.148C296.66 160.163 297.142 160.382 297.493 160.748C297.844 161.128 298.005 161.625 297.961 162.137L290.489 249.22C290.401 250.171 289.611 250.887 288.661 250.887H288.69ZM195.172 247.231H287.008L294.159 163.804H205.877L195.172 247.231Z" fill="black"/>
<path d="M196.62 221.611H290.883L292.419 205.51H198.682L196.62 221.611Z" fill="#E0E0FF"/>
<path d="M290.883 223.439H196.62C196.094 223.439 195.596 223.219 195.245 222.825C194.894 222.43 194.734 221.903 194.807 221.391L196.869 205.291C196.986 204.384 197.761 203.697 198.682 203.697H292.419C292.931 203.697 293.428 203.916 293.764 204.297C294.115 204.677 294.276 205.189 294.232 205.7L292.697 221.801C292.609 222.737 291.819 223.453 290.883 223.453V223.439ZM198.697 219.783H289.231L290.415 207.338H200.305L198.711 219.783H198.697Z" fill="black"/>
<path d="M283.82 187.056H263.874L265 172.081H284.961L283.82 187.056Z" fill="#E0E0FF"/>
<path d="M283.82 188.883H263.859C263.347 188.883 262.865 188.664 262.514 188.298C262.163 187.933 261.987 187.421 262.031 186.924L263.172 171.964C263.245 171.013 264.035 170.268 265 170.268H284.961C285.473 170.268 285.955 170.487 286.306 170.852C286.657 171.233 286.833 171.73 286.789 172.227L285.648 187.187C285.575 188.137 284.785 188.883 283.82 188.883ZM265.833 185.227H282.124L282.987 173.923H266.696L265.833 185.227Z" fill="black"/>
</svg>
