<svg width="253" height="85" viewBox="0 0 253 85" fill="none" xmlns="http://www.w3.org/2000/svg">
<path d="M8.72924 38.2476C12.9116 27.6163 23.2797 20.0703 35.3734 20.0703C47.467 20.0703 57.8351 27.6163 62.0175 38.2476H70.0312C65.5271 23.3755 51.6932 12.51 35.3734 12.51C24.5665 12.51 14.8565 17.2775 8.21741 24.8087V-0.0078125H0.774028V38.1013C0.774028 38.1013 0.744772 38.2038 0.730148 38.2476H8.74386H8.72924Z" fill="white"/>
<path d="M35.3733 77.3363C23.2797 77.3363 12.9116 69.791 8.72922 59.1597H0.715515C5.21957 74.0318 19.0535 84.8966 35.3733 84.8966C51.6932 84.8966 65.5271 74.0318 70.0312 59.1597H62.0175C57.8351 69.791 47.467 77.3363 35.3733 77.3363Z" fill="white"/>
<path d="M45.4928 44.8578C43.972 40.6024 39.892 37.561 35.1101 37.561C29.0267 37.561 24.0839 42.4885 24.0839 48.5865C24.0839 54.6846 29.0121 59.6128 35.1101 59.6128C39.892 59.6128 43.9573 56.5714 45.4928 52.316H70.7477V44.8728H45.4928V44.8578Z" fill="white"/>
<path d="M96.2366 46.8615V48.9236C95.2275 48.0754 94.1893 47.6512 93.1071 47.6512C91.9226 47.6512 90.9136 48.0751 90.1093 48.9379C89.2904 49.7861 88.8809 50.8242 88.8809 52.0525C88.8809 53.2809 89.2904 54.2901 90.1093 55.1236C90.9282 55.9572 91.9372 56.3811 93.1218 56.3811C93.7359 56.3811 94.2624 56.2791 94.6865 56.089C94.9204 55.9866 95.1691 55.8546 95.4323 55.6792C95.6955 55.5037 95.9587 55.2991 96.2512 55.0651V57.1708C95.2568 57.7411 94.2039 58.0191 93.1071 58.0191C91.4547 58.0191 90.0362 57.4485 88.8809 56.2932C87.711 55.1233 87.1407 53.7197 87.1407 52.0818C87.1407 50.6048 87.6233 49.2891 88.6031 48.1339C89.8022 46.7154 91.3523 46.0132 93.2534 46.0132C94.2916 46.0132 95.3007 46.2911 96.2658 46.8615" fill="white"/>
<path d="M103.329 51.9647C103.329 50.3415 103.929 48.9382 105.113 47.7683C106.298 46.5984 107.731 46.0132 109.398 46.0132C111.065 46.0132 112.454 46.5981 113.639 47.7826C114.823 48.9671 115.408 50.3712 115.408 52.0383C115.408 53.7053 114.809 55.1087 113.624 56.264C112.425 57.4338 110.992 58.0048 109.295 58.0048C107.804 58.0048 106.458 57.4929 105.274 56.4546C103.972 55.314 103.314 53.8073 103.314 51.9647M105.099 51.994C105.099 53.2662 105.523 54.3194 106.385 55.1529C107.234 55.9718 108.228 56.3961 109.339 56.3961C110.553 56.3961 111.577 55.9722 112.41 55.1386C113.244 54.2905 113.668 53.252 113.668 52.0383C113.668 50.8245 113.258 49.7714 112.425 48.9379C111.606 48.1044 110.597 47.6805 109.383 47.6805C108.169 47.6805 107.16 48.1044 106.327 48.9379C105.493 49.7714 105.084 50.7952 105.084 52.009" fill="white"/>
<path d="M122.501 57.814V45.4575L130.938 54.2752V46.2323H132.693V58.5159L124.255 49.7125V57.814H122.501Z" fill="white"/>
<path d="M140.268 57.814V45.4575L148.706 54.2752V46.2323H150.446V58.5159L142.008 49.7125V57.814H140.268Z" fill="white"/>
<path d="M164.324 47.8842H159.688V50.6633H164.192V52.3006H159.688V56.1614H164.324V57.8137H157.948V46.2319H164.324V47.8842Z" fill="white"/>
<path d="M179.927 46.8615V48.9236C178.918 48.0754 177.88 47.6512 176.798 47.6512C175.613 47.6512 174.604 48.0751 173.8 48.9379C172.981 49.7861 172.571 50.8242 172.571 52.0525C172.571 53.2809 172.981 54.2901 173.8 55.1236C174.619 55.9572 175.628 56.3811 176.812 56.3811C177.427 56.3811 177.953 56.2791 178.377 56.089C178.611 55.9866 178.86 55.8546 179.123 55.6792C179.386 55.5037 179.649 55.2991 179.942 55.0651V57.1708C178.947 57.7411 177.894 58.0191 176.798 58.0191C175.145 58.0191 173.727 57.4485 172.571 56.2932C171.402 55.1233 170.831 53.7197 170.831 52.0818C170.831 50.6048 171.314 49.2891 172.294 48.1339C173.493 46.7154 175.043 46.0132 176.944 46.0132C177.982 46.0132 178.991 46.2911 179.956 46.8615" fill="white"/>
<path d="M191.129 47.8842V57.8137H189.389V47.8842H186.318V46.2319H194.171V47.8842H191.129Z" fill="white"/>
<path d="M202.257 46.2319H200.517V57.7994H202.257V46.2319Z" fill="white"/>
<path d="M209.598 51.9647C209.598 50.3415 210.198 48.9382 211.382 47.7683C212.567 46.5984 214 46.0132 215.667 46.0132C217.334 46.0132 218.738 46.5981 219.908 47.7826C221.092 48.9671 221.677 50.3712 221.677 52.0383C221.677 53.7053 221.078 55.1087 219.893 56.264C218.694 57.4338 217.261 58.0048 215.565 58.0048C214.073 58.0048 212.728 57.4929 211.543 56.4546C210.242 55.314 209.584 53.8073 209.584 51.9647M211.353 51.994C211.353 53.2662 211.777 54.3194 212.64 55.1529C213.488 55.9718 214.483 56.3961 215.594 56.3961C216.808 56.3961 217.831 55.9722 218.665 55.1386C219.498 54.2905 219.923 53.252 219.923 52.0383C219.923 50.8245 219.513 49.7714 218.694 48.9379C217.875 48.1044 216.866 47.6805 215.652 47.6805C214.439 47.6805 213.43 48.1044 212.596 48.9379C211.763 49.7714 211.353 50.7952 211.353 52.009" fill="white"/>
<path d="M228.682 57.814V45.4575L237.12 54.2752V46.2323H238.875V58.5159L230.437 49.7125V57.814H228.682Z" fill="white"/>
<path d="M114.589 29.9854C114.589 27.748 115.408 25.8324 117.046 24.2238C118.684 22.6152 120.643 21.811 122.925 21.811C125.206 21.811 127.122 22.6148 128.745 24.2381C130.368 25.8613 131.187 27.8066 131.187 30.0732C131.187 32.3399 130.368 34.299 128.745 35.8784C127.107 37.4723 125.133 38.2768 122.808 38.2768C120.76 38.2768 118.918 37.5603 117.28 36.1418C115.481 34.5771 114.589 32.5149 114.589 29.9704M117.002 30.0147C117.002 31.7695 117.587 33.2172 118.771 34.3432C119.941 35.4692 121.301 36.0397 122.837 36.0397C124.504 36.0397 125.908 35.4692 127.048 34.3139C128.189 33.144 128.759 31.7253 128.759 30.0582C128.759 28.3911 128.189 26.9439 127.063 25.8032C125.937 24.648 124.548 24.0774 122.881 24.0774C121.214 24.0774 119.839 24.648 118.698 25.8032C117.558 26.9439 116.987 28.3476 116.987 30.0147" fill="white"/>
<path d="M155.594 34.1384H148.794L147.024 37.9992H144.436L152.289 21.1235L159.864 37.9992H157.246L155.579 34.1384H155.594ZM154.614 31.8863L152.259 26.4903L149.788 31.8863H154.614Z" fill="white"/>
<path d="M163.841 22.1182V35.7471H169.559V37.9991H161.443V22.1182H163.841Z" fill="white"/>
<path d="M107.818 22.1182V35.7471H113.536V37.9991H105.42V22.1182H107.818Z" fill="white"/>
<path d="M196.423 31.2285L201.336 37.999H198.411L193.454 30.8479V31.5063V38.0133H191.056V22.1323H193.864C195.969 22.1323 197.476 22.5272 198.411 23.3169C199.435 24.1943 199.962 25.3494 199.962 26.7972C199.962 27.9232 199.64 28.8883 198.996 29.6926C198.353 30.4969 197.505 31.0234 196.437 31.2428M193.439 28.8736H194.171C196.364 28.8736 197.461 28.0988 197.461 26.5487C197.461 25.1009 196.393 24.3701 194.258 24.3701H193.439V28.8736Z" fill="white"/>
<path d="M205.899 22.1182H203.5V37.9991H205.899V22.1182Z" fill="white"/>
<path d="M209.642 37.9991V22.1182H214.132C215.726 22.1182 216.998 22.2788 217.919 22.5859C218.914 22.893 219.82 23.4195 220.625 24.1653C222.262 25.6569 223.081 27.6308 223.081 30.0583C223.081 32.4858 222.233 34.475 220.522 35.9813C219.659 36.7417 218.767 37.2536 217.831 37.5607C216.954 37.8532 215.711 37.9991 214.102 37.9991H209.657H209.642ZM212.041 35.7471H214.263C215.345 35.7471 216.237 35.6301 216.954 35.4107C217.671 35.1768 218.314 34.7969 218.884 34.2704C220.069 33.1883 220.654 31.7839 220.654 30.0583C220.654 28.3327 220.069 26.8998 218.899 25.8176C217.846 24.8525 216.311 24.3702 214.263 24.3702H212.041V35.7471Z" fill="white"/>
<path d="M252.548 24.3702H246.187V28.1868H252.358V30.4389H246.187V35.7471H252.548V37.9991H243.788V22.1182H252.548V24.3702Z" fill="white"/>
<path d="M143.339 30.9651C142.93 30.3948 142.389 29.9562 141.745 29.6492C142.74 28.8595 143.485 27.6898 143.485 26.5638C143.485 25.935 143.324 25.3208 143.017 24.7066C142.71 24.107 142.301 23.5948 141.789 23.1999C141.277 22.8051 140.648 22.5275 139.917 22.3667C139.186 22.2058 138.192 22.1182 136.963 22.1182H134.185V37.9991H138.016C139.157 37.9991 140.107 37.8965 140.868 37.7064C141.555 37.5017 142.184 37.1361 142.74 36.6096C143.661 35.7468 144.129 34.7087 144.129 33.4657C144.129 32.5152 143.866 31.6967 143.354 30.9801M136.627 24.3117H138.206C139.054 24.3117 139.712 24.5013 140.151 24.8815C140.604 25.2617 140.824 25.818 140.824 26.5638C140.824 27.3096 140.604 27.8944 140.166 28.2746C139.727 28.6695 139.04 28.8594 138.104 28.8594H136.612V24.3117H136.627ZM140.78 35.1037C140.239 35.5278 139.405 35.7471 138.265 35.7471H136.7V30.9508H137.972C139.332 30.9508 140.268 31.1844 140.795 31.6378C141.336 32.1057 141.614 32.6763 141.614 33.3636C141.614 34.0509 141.336 34.65 140.765 35.118" fill="white"/>
<path d="M187.488 30.9651C187.078 30.3948 186.552 29.9562 185.894 29.6492C186.888 28.8595 187.634 27.6898 187.634 26.5638C187.634 25.935 187.473 25.3208 187.166 24.7066C186.859 24.107 186.449 23.5948 185.938 23.1999C185.426 22.8051 184.797 22.5275 184.051 22.3667C183.32 22.2058 182.34 22.1182 181.097 22.1182H178.319V37.9991H182.15C183.291 37.9991 184.241 37.8965 185.002 37.7064C185.704 37.5017 186.318 37.1361 186.874 36.6096C187.795 35.7468 188.263 34.7087 188.263 33.4657C188.263 32.5152 188 31.6967 187.488 30.9801M180.775 24.3117H182.355C183.203 24.3117 183.861 24.5013 184.314 24.8815C184.753 25.2617 184.987 25.818 184.987 26.5638C184.987 27.3096 184.768 27.8944 184.329 28.2746C183.89 28.6695 183.203 28.8594 182.267 28.8594H180.79V24.3117H180.775ZM184.929 35.1037C184.402 35.5278 183.554 35.7471 182.413 35.7471H180.849V30.9508H182.135C183.495 30.9508 184.431 31.1844 184.958 31.6378C185.499 32.1057 185.777 32.6763 185.777 33.3636C185.777 34.0509 185.499 34.65 184.929 35.118" fill="white"/>
<path d="M99.0151 22.5715C97.933 22.0597 96.7777 21.811 95.5347 21.811C93.2242 21.811 91.2646 22.6152 89.656 24.2238C88.0475 25.8324 87.2432 27.777 87.2432 30.0875C87.2432 32.398 88.0328 34.2848 89.6122 35.8933C91.1915 37.5019 93.0926 38.3061 95.3154 38.3061C97.5382 38.3061 99.4684 37.4723 100.945 35.8198C101.603 35.074 102.057 34.2845 102.335 33.4363C102.613 32.5151 102.759 31.4623 102.759 30.2631V29.7369H96.1928V31.989H100.156C100.053 33.1004 99.527 34.0651 98.5764 34.8694C97.6405 35.6591 96.573 36.069 95.4031 36.069C94.0139 36.069 92.727 35.5421 91.5425 34.4746C90.2702 33.3339 89.6414 31.8719 89.6414 30.1025C89.6414 28.333 90.2117 26.9582 91.3524 25.8175C92.493 24.6623 93.8969 24.0774 95.5786 24.0774C97.1579 24.0774 98.5325 24.7062 99.7171 25.9346L101.574 24.5308C100.726 23.6534 99.8779 22.9956 99.0151 22.5715Z" fill="white"/>
<path d="M237.339 22.5715C236.257 22.0597 235.102 21.811 233.859 21.811C231.548 21.811 229.589 22.6152 227.98 24.2238C226.371 25.8324 225.567 27.777 225.567 30.0875C225.567 32.398 226.357 34.2848 227.936 35.8933C229.516 37.5019 231.431 38.3061 233.639 38.3061C235.848 38.3061 237.792 37.4723 239.269 35.8198C239.928 35.074 240.381 34.2845 240.659 33.4363C240.936 32.5151 241.083 31.4623 241.083 30.2631V29.7369H234.517V31.989H238.48C238.363 33.1004 237.851 34.0651 236.9 34.8694C235.965 35.6591 234.897 36.069 233.727 36.069C232.338 36.069 231.051 35.5421 229.867 34.4746C228.594 33.3339 227.965 31.8719 227.965 30.1025C227.965 28.333 228.536 26.9582 229.676 25.8175C230.817 24.6623 232.221 24.0774 233.903 24.0774C235.482 24.0774 236.857 24.7062 238.041 25.9346L239.898 24.5308C239.065 23.6534 238.202 22.9956 237.339 22.5715Z" fill="white"/>
<path d="M252.138 52.316C251.7 51.775 251.012 51.3067 250.076 50.9265L248.921 50.4588C248.088 50.1078 247.664 49.6542 247.664 49.0986C247.664 48.6891 247.824 48.3532 248.146 48.0753C248.468 47.7975 248.863 47.6655 249.345 47.6655C249.74 47.6655 250.062 47.7388 250.31 47.8997C250.544 48.0459 250.808 48.3382 251.071 48.7915L252.489 47.9582C251.744 46.6567 250.705 46.0132 249.36 46.0132C248.366 46.0132 247.547 46.3058 246.874 46.8907C246.216 47.4757 245.88 48.2065 245.88 49.0693C245.88 50.3562 246.669 51.3363 248.263 52.009L249.375 52.4767C249.667 52.6083 249.916 52.7399 250.12 52.8715C250.325 53.0032 250.501 53.1498 250.632 53.3107C250.764 53.4715 250.866 53.6465 250.925 53.8219C250.983 54.012 251.012 54.2167 251.012 54.436C251.012 54.9917 250.837 55.4599 250.471 55.8255C250.106 56.1911 249.667 56.3668 249.111 56.3668C248.424 56.3668 247.898 56.1178 247.532 55.6206C247.4 55.4451 247.298 55.1822 247.21 54.8166L245.558 55.5185C245.777 56.1619 246.099 56.7028 246.552 57.1122C247.21 57.7118 248.044 58.0048 249.038 58.0048C250.091 58.0048 250.983 57.6535 251.7 56.9516C252.402 56.2643 252.767 55.3725 252.767 54.3196C252.767 53.5299 252.548 52.8567 252.109 52.301" fill="white"/>
</svg>
